<svg version="1.2" xmlns="http://www.w3.org/2000/svg" viewBox="0 0 512 512" width="512" height="512">
	<title>Novo Projeto</title>
	<style>
		.s0 { fill: #7ccf00 } 
		.s1 { fill: #242424 } 
	</style>
	<path id="Path 0" class="s0" d="m233.8 62.6c-2.2 0.3-9.4 1.5-16.1 2.7-6.7 1.2-17.1 3.8-23.2 5.8-6.1 2-16.4 6.2-23 9.3-6.6 3.2-11.9 6.2-11.9 6.8 0 0.8 15.9 1.1 45.4 1.1h45.5c13.3-12.5 20.1-18.1 23.7-20.5l6.5-4.4c-5-1.1-14.6-1.4-24.7-1.3-10.1 0-20.1 0.2-22.2 0.5zm-171.7 193.6v13.9c6.3-0.1 8.1-1.1 10.9-4.2 2-2.3 7.6-8.5 12.4-13.8l8.8-9.7h-32.1zm367.5-0.6c-6.5 7.3-11.4 13.6-11 13.9 0.5 0.3 7.7 0.6 16.1 0.6l15.2-0.1v-27.7c-8.3 0-9.1 0.7-20.3 13.3zm-180.2 177.5c-5.2 5-11.7 10.3-14.5 11.9l-4.9 2.9c7.7 1.4 19.7 1.6 31.5 1.3 16.2-0.4 24.4-1.1 32.7-2.9 6.1-1.3 15.4-3.6 20.5-5.2 5.2-1.6 14.7-5.2 21.1-8 6.4-2.9 12.9-6.1 14.4-7.1 2.6-1.8 0.5-1.9-44.3-1.9l-47.1 0.1zm-131.4-314.4c-6.9 6.9-12.6 13.2-12.7 13.8 0 0.8 16.3 1.2 49.9 1.2h49.8c4.8-4.1 10.7-10.3 16.4-16.5l10.2-11.3h-100.9zm-31.9 41.9c-2.7 5-5.8 11.2-6.8 13.6-1 2.4-1.8 4.6-1.8 4.7 0.1 0.2 20.8 0.3 46.1 0.3h46c7.6-13.3 11.8-19.6 14.3-22.5l4.5-5.2h-97.2zm227.5 2.6c-6.6 6.5-12.1 12.2-12.2 12.5 0 0.4 1.2 1.3 2.7 2.1 2.1 1 10.9 1.3 32.2 1.3h29.4c1.9-4.8 2.1-8.8 1.7-12.7-0.4-4.3-1.6-8.1-3.4-10.8l-2.8-4.2h-35.6zm-245.8 43.4c-1.3 5.3-2.6 11.5-2.9 13.8l-0.6 4.2c40.9 0 47.5-0.4 48.8-1.4 1-0.8 7-7 13.3-13.9l11.6-12.4h-67.9zm257.6-8.4c0.5 0.8 3.1 4.2 5.8 7.5 2.7 3.4 4.9 6.2 5 6.4 0.1 0.1 3.6-3.3 7.8-7.5l7.7-7.7c-24.2 0-27 0.3-26.3 1.3zm59.7 102.8c-9.4 9.4-12.8 13.4-11.6 13.9 0.9 0.3 16.6 0.4 34.8 0.3l33.3-0.3c3.6-14.6 5-20.7 5.4-23l0.7-4.2h-49.3zm-217.6 5.3c-3.7 4.2-6.5 7.9-6.2 8.4 0.3 0.4 5.6 0.8 11.9 0.8 6.3 0 11.8-0.3 12.2-0.6 0.4-0.3-1.4-4-4.1-8.3-2.7-4.2-5.4-7.7-6-7.7-0.6 0-4.2 3.3-7.8 7.4zm-23.1 28.9c-0.4 1-0.5 5.2-0.2 9.3 0.3 6.2 0.9 8 3.8 11.6l3.5 4.3c23 0.5 30.8 0.3 32.2 0 1.3-0.3 8-5.9 14.7-12.5 11.2-10.9 12.1-12 10.3-13.3-1.5-1.1-9.8-1.4-32.8-1.4-28.3 0-30.9 0.2-31.5 2zm192.9 5.4c-2.4 4.1-6.7 9.9-9.5 13-2.9 3.1-4.9 6-4.5 6.5 0.5 0.5 22.4 0.9 48.8 0.9l47.9-0.1c8-14.2 11.2-20.4 12.3-23l2.1-4.7h-92.9zm-45.5 51.1c-6.8 7.1-12 13.4-11.6 13.9 0.4 0.4 22.8 0.8 49.8 0.8h49.1c12.2-10.8 18.4-17 21.7-20.8l6-6.9h-102.6z"/>
	<path id="Path 0" class="s1" d="m316.3 73.8c-6.1 1.8-14.7 5-19.1 7.1-4.5 2.2-11.8 6.8-16.3 10.3-4.5 3.5-23.3 21.8-41.9 40.7-18.5 18.9-36.3 37.8-39.5 41.9-3.1 4.2-7.5 11.6-9.8 16.4-2.2 4.9-5.1 13.1-6.5 18.4-1.5 5.9-2.5 15.2-2.5 24.3 0.1 8.2 1.1 19.1 2.4 24.6 1.3 5.5 4.6 14.7 7.4 20.6 2.8 5.9 8.1 14.5 11.8 19.1 3.6 4.7 10 11.1 14 14.4 4 3.2 8.7 5.8 10.3 5.8 1.9 0 6.9-4.6 13.9-12.8 6.1-7.1 12.4-15.4 14-18.4 2.8-5.1 2.8-5.7 0.5-7.4-1.3-1-6.3-5.6-11-10.3-7.4-7.3-9-9.8-11.7-19.1-2.5-8.2-2.9-12.5-2.2-18.7 0.6-4.7 3.1-11.9 5.8-16.9 3.5-6.5 14.1-18.3 42.2-46.8 30-30.5 39.1-38.8 45.6-42 6.5-3.1 10.2-3.9 19.1-3.9 9.4 0 12.5 0.7 20.6 4.6 5.8 2.8 11.7 7.1 15.1 11 3.1 3.6 7 9.4 8.7 13.1 2.5 5.1 3.2 9.4 3.3 19.1 0.1 10.1-0.6 13.9-3.3 19.8-2 4.2-8.6 12.8-15.5 19.9-6.5 6.9-14.6 15.3-17.8 18.8l-6 6.2c4.1 17.7 5.7 29.1 6.1 36.8 0.5 7.7 0.3 17.7-0.4 22.4-0.7 4.6-0.9 8.5-0.5 8.5 0.4 0.1 15.3-14.7 33.1-32.8 17.8-18 35-36.8 38.2-41.6 3.2-4.8 7.4-12.7 9.3-17.6 2-4.8 4.6-13.4 5.8-19.1 1.4-6.9 1.9-14.8 1.4-24.3-0.5-8-2.2-18.3-4-24.2-1.7-5.7-5.5-14.6-8.4-19.9-3.3-6-10-14.2-17.9-22-9.5-9.5-15.4-13.9-23.7-17.9-6.1-2.9-16.1-6.7-22.4-8.4-7.9-2.2-15.3-3.1-24.3-3-8.4 0.1-16.6 1.2-23.9 3.3zm-39.9 126.4c-3.8 3.4-9.4 9.5-12.5 13.5-3.2 4.1-6.7 9.7-7.9 12.4-2.1 4.8-2 5.1 1.2 7.4 1.9 1.3 6.1 4.6 9.4 7.5 3.2 2.8 7.8 9.1 10.2 13.9 3.7 7.4 4.4 10.7 4.5 19.9 0.1 9.2-0.6 12.4-4.1 19.8-2.6 5.3-9.1 13.9-16.7 22-6.9 7.4-23.7 24.8-37.5 38.8-19.6 19.8-27 26.4-33.9 29.9-7.1 3.6-10.9 4.5-19.1 4.6-6.3 0.2-13.2-0.7-17.7-2.2-4.3-1.4-10.6-5.4-15.3-9.5-4.3-3.9-9.6-10.4-11.7-14.4-3.4-6.5-3.9-9.1-3.9-21.4 0-12 0.5-14.9 3.7-20.9 2-3.8 11.5-15.2 21-25.3l17.2-18.5c-4.4-19.5-5.1-29.2-5.1-45.3v-22.5c-58.2 58.9-69.2 71.2-73.2 78.1-3.1 5.3-7.3 14.9-9.3 21.4-2.3 7.1-4.1 16.9-4.6 25-0.6 9.5-0.1 16.7 1.7 25.7 1.4 6.9 4.7 17.1 7.4 22.8 2.6 5.7 7.8 14.4 11.6 19.5 3.8 5 10.6 12.1 15.3 15.8 4.6 3.6 13.1 8.9 18.7 11.7 5.7 2.8 15.5 6.5 21.7 8.1 6.6 1.7 16.1 3 22.5 3 6.3 0 16.2-1.3 23.1-3.1 6.7-1.7 17.5-5.7 23.9-9 10.8-5.5 15-9.2 50.2-44.4 21.1-21.1 41.5-42.7 45.4-47.9 3.8-5.3 8.6-13.2 10.6-17.7 1.9-4.4 4.5-11.7 5.7-16.2 1.2-4.6 2.1-14.9 2.1-24.2 0-8.9-0.7-19.2-1.5-22.8-0.8-3.7-2.9-10.3-4.7-14.7-1.7-4.5-5.6-12.1-8.6-17-3-4.8-10.5-13.6-16.7-19.4-6.1-5.9-12.3-10.7-13.7-10.7-1.4 0-5.7 2.9-9.4 6.3z"/>
</svg>